# xmcd CD database file
#
# Track frame offsets:
#	150
#	94624
#	133059
#	171867
#	182802
#	208323
#	226787
#
# Disc length: 3606 seconds
#
# Revision: 0
# Processed by: cddbd v1.5.2PL0 Copyright (c) Steve Scherf et al.
# Submitted via: CDex 1.76
#
DISCID=5c0e1407
DTITLE=Dean Evenson - Desert Dawn Song
DYEAR=2015
DGENRE=New Age
TTITLE0=Desert Dawn Song 01
TTITLE1=Canyon Sunrise 02
TTITLE2=Morning Glow 03
TTITLE3=For The Birds 04
TTITLE4=Sonora Celebration 05
TTITLE5=Sunbeam Stream 06
TTITLE6=Catalina Calling 07
EXTD=YEAR: 2015
EXTT0=
EXTT1=
EXTT2=
EXTT3=
EXTT4=
EXTT5=
EXTT6=
PLAYORDER=
